<?xml version="1.0" encoding="utf-8"?>
<!-- Generator: Adobe Illustrator 23.0.1, SVG Export Plug-In . SVG Version: 6.00 Build 0)  -->
<svg version="1.1" id="Слой_1" xmlns="http://www.w3.org/2000/svg" xmlns:xlink="http://www.w3.org/1999/xlink" x="0px" y="0px"
	 viewBox="0 0 160.9 160.9" style="enable-background:new 0 0 160.9 160.9;" xml:space="preserve">
<style type="text/css">
	.st0{fill:#FFFFFF;}
	.st1{fill:#006E88;}
	.st2{fill:none;stroke:#FFFFFF;stroke-width:8;stroke-linecap:round;stroke-linejoin:round;stroke-miterlimit:10;}
</style>
<path class="st0" d="M80.4,160.9c-2.2,0-4-1.8-4-4V4c0-2.2,1.8-4,4-4s4,1.8,4,4v152.9C84.4,159.1,82.7,160.9,80.4,160.9z"/>
<path class="st0" d="M156.9,84.4H4c-2.2,0-4-1.8-4-4s1.8-4,4-4h152.9c2.2,0,4,1.8,4,4S159.1,84.4,156.9,84.4z"/>
<circle class="st1" cx="80.6" cy="80.4" r="80.4"/>
<line class="st2" x1="80.6" y1="40.9" x2="80.6" y2="120"/>
<line class="st2" x1="119.9" y1="79.9" x2="40.8" y2="79.9"/>
</svg>
