<?xml version="1.0" encoding="utf-8"?>
<!-- Generator: Adobe Illustrator 23.0.1, SVG Export Plug-In . SVG Version: 6.00 Build 0)  -->
<svg version="1.1" id="Слой_1" xmlns="http://www.w3.org/2000/svg" xmlns:xlink="http://www.w3.org/1999/xlink" x="0px" y="0px"
	 viewBox="0 0 153.9 149.2" style="enable-background:new 0 0 153.9 149.2;" xml:space="preserve">
<style type="text/css">
	.st0{fill:#FFFFFF;}
</style>
<path class="st0" d="M8.7,135.2c12-25.6,38.1-43.5,68.2-43.5c30.1,0,56.2,17.8,68.2,43.5h8.7c-12.5-30.2-42.3-51.5-77-51.5
	c-34.7,0-64.4,21.3-77,51.5H8.7z"/>
<path class="st0" d="M76.2,76.1c-17.5,0-31.7-14.2-31.7-31.7c0-17.5,14.2-31.7,31.7-31.7c17.5,0,31.7,14.2,31.7,31.7
	C107.9,61.9,93.7,76.1,76.2,76.1z M76.2,20.7c-13.1,0-23.7,10.6-23.7,23.7s10.6,23.7,23.7,23.7s23.7-10.6,23.7-23.7
	S89.3,20.7,76.2,20.7z"/>
</svg>
