<?xml version="1.0" encoding="utf-8"?>
<!-- Generator: Adobe Illustrator 23.0.1, SVG Export Plug-In . SVG Version: 6.00 Build 0)  -->
<svg version="1.1" id="Слой_1" xmlns="http://www.w3.org/2000/svg" xmlns:xlink="http://www.w3.org/1999/xlink" x="0px" y="0px"
	 viewBox="0 0 160.9 160.9" style="enable-background:new 0 0 160.9 160.9;" xml:space="preserve">
<style type="text/css">
	.st0{fill:#016E88;}
</style>
<path class="st0" d="M136,75.6H34.2l24.5-24.5c1.6-1.6,1.6-4.1,0-5.7c-1.6-1.6-4.1-1.6-5.7,0L21.6,77c-1.6,1.6-1.6,4.1,0,5.7l32,32
	c0.8,0.8,1.8,1.2,2.8,1.2c1,0,2-0.4,2.8-1.2c1.6-1.6,1.6-4.1,0-5.7L33.9,83.6c0.1,0,0.1,0,0.2,0H136c2.2,0,4-1.8,4-4
	C140,77.4,138.2,75.6,136,75.6z M30.1,79.8L30.1,79.8C30.2,79.8,30.2,79.8,30.1,79.8L30.1,79.8z"/>
</svg>
