<?xml version="1.0" encoding="utf-8"?>
<!-- Generator: Adobe Illustrator 23.0.1, SVG Export Plug-In . SVG Version: 6.00 Build 0)  -->
<svg version="1.1" id="Слой_1" xmlns="http://www.w3.org/2000/svg" xmlns:xlink="http://www.w3.org/1999/xlink" x="0px" y="0px"
	 viewBox="0 0 153.6 148.4" style="enable-background:new 0 0 153.6 148.4;" xml:space="preserve">
<style type="text/css">
	.st0{fill:#036C86;stroke:#006D87;stroke-width:8;stroke-linecap:round;stroke-miterlimit:10;}
	.st1{fill:none;stroke:#006D87;stroke-width:8;stroke-linecap:round;stroke-linejoin:round;stroke-miterlimit:10;}
	.st2{fill:#006D87;}
</style>
<line class="st0" x1="142.5" y1="73.9" x2="85.6" y2="73.9"/>
<polyline class="st1" points="130.4,55.6 148.5,73.6 130.7,91.4 "/>
<path class="st2" d="M93.3,84.2v46.2c0,5-4,9-9,9H19.3c-5,0-9-4-9-9V18c0-5,4-9,9-9h64.9c5,0,9,4,9,9v45.6h9V18c0-9.9-8.1-18-18-18
	H19.3c-9.9,0-18,8.1-18,18v112.5c0,9.9,8.1,18,18,18h64.9c9.9,0,18-8.1,18-18V84.2H93.3z"/>
</svg>
