<?xml version="1.0" encoding="utf-8"?>
<!-- Generator: Adobe Illustrator 24.0.1, SVG Export Plug-In . SVG Version: 6.00 Build 0)  -->
<svg version="1.1" id="Слой_1" xmlns="http://www.w3.org/2000/svg" xmlns:xlink="http://www.w3.org/1999/xlink" x="0px" y="0px"
	 viewBox="0 0 595.21 333.98" style="enable-background:new 0 0 595.21 333.98;" xml:space="preserve">
<style type="text/css">
	.st0{fill:url(#SVGID_1_);}
	.st1{fill:url(#SVGID_2_);}
	.st2{fill:#45474F;}
	.st3{fill:url(#SVGID_3_);}
	.st4{fill:url(#SVGID_4_);}
</style>
<linearGradient id="SVGID_1_" gradientUnits="userSpaceOnUse" x1="5.4496" y1="166.8154" x2="256.3849" y2="158.6115">
	<stop  offset="0" style="stop-color:#B3174B"/>
	<stop  offset="0.1882" style="stop-color:#CD2556"/>
	<stop  offset="0.3781" style="stop-color:#E0305F"/>
	<stop  offset="0.5092" style="stop-color:#E73462"/>
	<stop  offset="0.618" style="stop-color:#E84069"/>
	<stop  offset="0.8145" style="stop-color:#EB607C"/>
	<stop  offset="1" style="stop-color:#EF8492"/>
</linearGradient>
<path class="st0" d="M97.07,251.85c-34.33,0.12-93.54,0.8-67.79-36.43c32.6-47.14,223.96-153.03,223.96-153.03
	S96.57,139.45,42.62,185.84c-53.95,46.39-31.84,60.89-22.27,66.87c7.71,4.82,32.81,10.63,63.27,7.43L97.07,251.85z"/>
<linearGradient id="SVGID_2_" gradientUnits="userSpaceOnUse" x1="101.8625" y1="148.5799" x2="161.858" y2="148.5799">
	<stop  offset="0" style="stop-color:#B3174B"/>
	<stop  offset="0.1882" style="stop-color:#CD2556"/>
	<stop  offset="0.3781" style="stop-color:#E0305F"/>
	<stop  offset="0.5092" style="stop-color:#E73462"/>
	<stop  offset="0.618" style="stop-color:#E84069"/>
	<stop  offset="0.8145" style="stop-color:#EB607C"/>
	<stop  offset="1" style="stop-color:#EF8492"/>
</linearGradient>
<polygon class="st1" points="101.86,278.73 161.86,278.73 133.48,18.43 "/>
<g>
	<path class="st2" d="M192.72,249.88v-84.96h35.1c0.83,0,1.89,0.03,3.19,0.09c1.3,0.06,2.5,0.19,3.6,0.38
		c4.92,0.75,8.98,2.38,12.18,4.9c3.21,2.52,5.58,5.69,7.14,9.53c1.55,3.84,2.33,8.09,2.33,12.77c0,4.64-0.79,8.88-2.36,12.71
		c-1.57,3.83-3.96,7.01-7.17,9.53c-3.21,2.52-7.25,4.15-12.12,4.9c-1.1,0.16-2.31,0.28-3.63,0.35c-1.32,0.08-2.37,0.12-3.16,0.12
		h-20.89v29.68H192.72z M206.94,206.93h20.3c0.79,0,1.67-0.04,2.65-0.12c0.98-0.08,1.89-0.24,2.71-0.47
		c2.36-0.59,4.22-1.63,5.58-3.13c1.36-1.49,2.32-3.19,2.89-5.07c0.57-1.89,0.86-3.74,0.86-5.55c0-1.81-0.29-3.67-0.86-5.58
		c-0.57-1.91-1.53-3.61-2.89-5.1c-1.36-1.5-3.22-2.54-5.58-3.13c-0.83-0.24-1.73-0.38-2.71-0.44c-0.98-0.06-1.87-0.09-2.65-0.09
		h-20.3V206.93z"/>
	<path class="st2" d="M282.22,249.88l11.21-22.89l-29.32-62.07h16.05l20.71,47.08l21.36-47.08h15.16l-40,84.96H282.22z"/>
	<path class="st2" d="M349.06,249.88v-84.96h56.81v13.33h-42.6v18.29h20.89c0.79,0,1.84,0.03,3.16,0.09
		c1.32,0.06,2.53,0.15,3.63,0.27c4.76,0.55,8.74,2.06,11.95,4.54c3.21,2.48,5.62,5.6,7.26,9.38c1.63,3.78,2.45,7.91,2.45,12.39
		c0,4.48-0.81,8.62-2.42,12.42c-1.61,3.8-4.02,6.92-7.23,9.38c-3.21,2.46-7.21,3.96-12.01,4.51c-1.1,0.12-2.3,0.21-3.6,0.26
		c-1.3,0.06-2.36,0.09-3.19,0.09H349.06z M363.28,236.55h20.3c0.79,0,1.67-0.04,2.65-0.12c0.98-0.08,1.89-0.2,2.71-0.35
		c3.54-0.75,5.98-2.4,7.32-4.96c1.34-2.56,2.01-5.19,2.01-7.91c0-2.75-0.67-5.4-2.01-7.94s-3.78-4.18-7.32-4.93
		c-0.83-0.2-1.73-0.32-2.71-0.38c-0.98-0.06-1.87-0.09-2.65-0.09h-20.3V236.55z"/>
	<path class="st2" d="M481.16,249.88V190l-39.41,59.88h-14.39v-84.96h14.39v59.88l39.41-59.88h14.39v84.96H481.16z"/>
	<path class="st2" d="M515.02,249.88v-84.96h14.22v35.75h40.24v-35.75h14.16v84.96h-14.16v-35.87h-40.24v35.87H515.02z"/>
</g>
<g>
	<path class="st2" d="M191.87,278.85v-13h2.18v5.47h6.16v-5.47h2.17v13h-2.17v-5.49h-6.16v5.49H191.87z"/>
	<path class="st2" d="M204,278.85l4.1-13h3.19l4.1,13h-2.24l-3.72-11.67h0.49l-3.68,11.67H204z M206.28,276.03V274h6.83v2.03H206.28
		z"/>
	<path class="st2" d="M218.72,278.85l1.72-3.5l-4.49-9.5h2.45l3.17,7.21l3.27-7.21h2.32l-6.12,13H218.72z"/>
	<path class="st2" d="M235.99,278.85v-5.78l0.35,0.56c-0.35,0.29-0.84,0.52-1.44,0.69c-0.61,0.17-1.26,0.25-1.94,0.25
		c-1.1,0-1.97-0.21-2.62-0.64c-0.65-0.43-1.12-1.02-1.41-1.77c-0.29-0.75-0.43-1.62-0.43-2.61v-3.7h2.2v3.03
		c0,0.45,0.02,0.88,0.08,1.31c0.05,0.43,0.17,0.82,0.34,1.17c0.18,0.35,0.45,0.63,0.82,0.83c0.37,0.21,0.86,0.31,1.49,0.31
		c0.7,0,1.3-0.12,1.79-0.35c0.49-0.23,0.84-0.48,1.05-0.75l-0.27,1.09v-6.66h2.19v13H235.99z"/>
	<path class="st2" d="M240.7,278.85v-13h2.18v5.47h6.16v-5.47h2.17v13h-2.17v-5.49h-6.16v5.49H240.7z"/>
	<path class="st2" d="M259.23,279.12c-1.3,0-2.41-0.29-3.34-0.85c-0.93-0.57-1.64-1.36-2.14-2.38c-0.5-1.02-0.75-2.2-0.75-3.54
		c0-1.34,0.25-2.52,0.75-3.54c0.5-1.02,1.21-1.81,2.14-2.38c0.93-0.57,2.04-0.85,3.34-0.85c1.3,0,2.42,0.28,3.35,0.85
		c0.93,0.57,1.64,1.36,2.14,2.38c0.5,1.02,0.74,2.2,0.74,3.54c0,1.34-0.25,2.52-0.74,3.54c-0.5,1.02-1.21,1.81-2.14,2.38
		C261.65,278.84,260.53,279.12,259.23,279.12z M259.23,277.07c0.87,0.01,1.6-0.19,2.18-0.58c0.58-0.39,1.02-0.94,1.31-1.65
		c0.29-0.71,0.44-1.54,0.44-2.49s-0.15-1.78-0.44-2.48c-0.29-0.7-0.73-1.25-1.31-1.64c-0.58-0.39-1.31-0.59-2.18-0.61
		c-0.87-0.01-1.6,0.19-2.17,0.58c-0.58,0.39-1.01,0.94-1.3,1.65c-0.29,0.71-0.44,1.54-0.44,2.49s0.15,1.78,0.43,2.48
		c0.29,0.7,0.73,1.25,1.3,1.64C257.63,276.86,258.36,277.06,259.23,277.07z"/>
	<path class="st2" d="M267.09,273.2v-1.71h5.42v1.71H267.09z"/>
	<path class="st2" d="M283.09,278.85v-9.16l-6.03,9.16h-2.2v-13h2.2v9.16l6.03-9.16h2.2v13H283.09z"/>
	<path class="st2" d="M293.31,279.12c-1.3,0-2.41-0.29-3.34-0.85c-0.93-0.57-1.64-1.36-2.14-2.38c-0.5-1.02-0.75-2.2-0.75-3.54
		c0-1.34,0.25-2.52,0.75-3.54c0.5-1.02,1.21-1.81,2.14-2.38c0.93-0.57,2.04-0.85,3.34-0.85c1.5,0,2.75,0.37,3.75,1.12
		s1.7,1.76,2.1,3.03l-2.19,0.61c-0.25-0.85-0.68-1.51-1.29-1.99c-0.61-0.48-1.4-0.72-2.37-0.72c-0.87,0-1.6,0.2-2.18,0.59
		c-0.58,0.39-1.02,0.94-1.31,1.65c-0.29,0.71-0.44,1.54-0.45,2.49c0,0.95,0.15,1.78,0.44,2.49c0.29,0.71,0.73,1.26,1.31,1.65
		s1.31,0.59,2.18,0.59c0.97,0,1.76-0.24,2.37-0.72c0.61-0.48,1.04-1.14,1.29-1.99l2.19,0.6c-0.4,1.27-1.1,2.28-2.1,3.03
		C296.06,278.75,294.81,279.12,293.31,279.12z"/>
	<path class="st2" d="M306.65,279.12c-1.3,0-2.41-0.29-3.34-0.85c-0.93-0.57-1.64-1.36-2.14-2.38c-0.5-1.02-0.75-2.2-0.75-3.54
		c0-1.34,0.25-2.52,0.75-3.54c0.5-1.02,1.21-1.81,2.14-2.38c0.93-0.57,2.04-0.85,3.34-0.85c1.5,0,2.75,0.37,3.75,1.12
		c1,0.75,1.7,1.76,2.1,3.03l-2.19,0.61c-0.25-0.85-0.68-1.51-1.29-1.99c-0.61-0.48-1.4-0.72-2.37-0.72c-0.87,0-1.6,0.2-2.18,0.59
		c-0.58,0.39-1.02,0.94-1.31,1.65c-0.29,0.71-0.44,1.54-0.45,2.49c0,0.95,0.15,1.78,0.44,2.49c0.29,0.71,0.73,1.26,1.31,1.65
		s1.31,0.59,2.18,0.59c0.97,0,1.76-0.24,2.37-0.72c0.61-0.48,1.04-1.14,1.29-1.99l2.19,0.6c-0.4,1.27-1.1,2.28-2.1,3.03
		C309.4,278.75,308.15,279.12,306.65,279.12z"/>
	<path class="st2" d="M313.22,278.85v-1.82c0.29,0.02,0.53,0,0.73-0.07c0.2-0.06,0.37-0.19,0.5-0.37s0.25-0.45,0.36-0.79
		c0.1-0.34,0.2-0.77,0.3-1.29c0.14-0.74,0.25-1.51,0.35-2.32c0.09-0.8,0.17-1.6,0.24-2.38c0.07-0.78,0.12-1.51,0.15-2.2
		c0.04-0.69,0.07-1.28,0.09-1.78h8.7v13h-2.18v-10.96h-4.51c-0.03,0.4-0.07,0.89-0.1,1.46c-0.04,0.57-0.09,1.18-0.15,1.85
		c-0.06,0.66-0.14,1.35-0.23,2.06c-0.09,0.71-0.21,1.41-0.34,2.1c-0.12,0.63-0.27,1.19-0.43,1.68c-0.17,0.5-0.39,0.91-0.67,1.23
		c-0.28,0.32-0.65,0.54-1.09,0.65C314.48,279.01,313.91,278.99,313.22,278.85z"/>
	<path class="st2" d="M327.17,278.85v-13h8.4v2.04h-6.22v3.21h5.14v2.04h-5.14v3.67h6.22v2.04H327.17z"/>
	<path class="st2" d="M337.04,281.02v-4.21c0.42,0,0.77-0.11,1.06-0.32c0.28-0.21,0.51-0.5,0.68-0.88c0.17-0.37,0.31-0.81,0.4-1.3
		c0.1-0.5,0.17-1.03,0.23-1.59c0.07-0.74,0.12-1.47,0.17-2.18c0.05-0.71,0.09-1.45,0.14-2.22s0.1-1.6,0.16-2.5l8.48,0.02v10.96h0.97
		v4.21h-2.17v-2.17h-7.94v2.17H337.04z M340.43,276.81h5.75v-8.92l-4.32-0.02c-0.04,0.63-0.08,1.22-0.1,1.77
		c-0.03,0.55-0.06,1.1-0.1,1.66c-0.04,0.56-0.09,1.17-0.16,1.83c-0.06,0.65-0.13,1.19-0.19,1.63c-0.07,0.43-0.17,0.81-0.3,1.12
		C340.87,276.19,340.68,276.5,340.43,276.81z"/>
	<path class="st2" d="M356.81,279.12c-1.3,0-2.41-0.29-3.34-0.85c-0.93-0.57-1.64-1.36-2.14-2.38c-0.5-1.02-0.75-2.2-0.75-3.54
		c0-1.34,0.25-2.52,0.75-3.54c0.5-1.02,1.21-1.81,2.14-2.38c0.93-0.57,2.04-0.85,3.34-0.85c1.3,0,2.42,0.28,3.35,0.85
		c0.93,0.57,1.64,1.36,2.14,2.38c0.5,1.02,0.74,2.2,0.74,3.54c0,1.34-0.25,2.52-0.74,3.54c-0.5,1.02-1.21,1.81-2.14,2.38
		C359.23,278.84,358.11,279.12,356.81,279.12z M356.81,277.07c0.87,0.01,1.6-0.19,2.18-0.58c0.58-0.39,1.02-0.94,1.31-1.65
		c0.29-0.71,0.44-1.54,0.44-2.49s-0.15-1.78-0.44-2.48c-0.29-0.7-0.73-1.25-1.31-1.64c-0.58-0.39-1.31-0.59-2.18-0.61
		c-0.87-0.01-1.6,0.19-2.17,0.58c-0.58,0.39-1.01,0.94-1.3,1.65c-0.29,0.71-0.44,1.54-0.44,2.49s0.15,1.78,0.43,2.48
		c0.29,0.7,0.73,1.25,1.3,1.64C355.21,276.86,355.94,277.06,356.81,277.07z"/>
	<path class="st2" d="M364.85,278.85v-13H370c0.88,0,1.6,0.18,2.16,0.53c0.56,0.35,0.98,0.8,1.26,1.35c0.27,0.55,0.41,1.11,0.41,1.7
		c0,0.72-0.17,1.32-0.51,1.82c-0.34,0.5-0.8,0.84-1.39,1.01v-0.45c0.82,0.19,1.44,0.58,1.86,1.16c0.42,0.59,0.64,1.26,0.64,2.01
		c0,0.77-0.15,1.44-0.44,2.02c-0.29,0.58-0.73,1.03-1.31,1.35c-0.58,0.32-1.3,0.49-2.15,0.49H364.85z M367.05,271.04h2.92
		c0.31,0,0.59-0.06,0.84-0.18s0.44-0.3,0.59-0.53c0.15-0.23,0.22-0.52,0.22-0.87c0-0.45-0.14-0.83-0.43-1.13
		c-0.29-0.3-0.69-0.45-1.21-0.45h-2.92V271.04z M367.05,276.8h3.21c0.38,0,0.72-0.08,1.02-0.23c0.3-0.15,0.54-0.37,0.71-0.65
		c0.17-0.28,0.26-0.61,0.26-1c0-0.35-0.08-0.66-0.23-0.94c-0.15-0.28-0.37-0.5-0.66-0.66s-0.63-0.25-1.04-0.25h-3.27V276.8z"/>
	<path class="st2" d="M375.34,278.85l4.1-13h3.19l4.1,13h-2.24l-3.72-11.67h0.49l-3.68,11.67H375.34z M377.62,276.03V274h6.83v2.03
		H377.62z"/>
	<path class="st2" d="M390.39,278.85v-10.96h-4.21v-2.04h10.59v2.04h-4.21v10.96H390.39z"/>
	<path class="st2" d="M398.22,278.85v-13h8.4v2.04h-6.22v3.21h5.14v2.04h-5.14v3.67h6.22v2.04H398.22z"/>
	<path class="st2" d="M407.88,278.85v-1.82c0.29,0.02,0.53,0,0.73-0.07c0.2-0.06,0.37-0.19,0.5-0.37s0.25-0.45,0.36-0.79
		c0.1-0.34,0.2-0.77,0.3-1.29c0.14-0.74,0.25-1.51,0.35-2.32c0.09-0.8,0.17-1.6,0.24-2.38c0.07-0.78,0.12-1.51,0.15-2.2
		c0.04-0.69,0.07-1.28,0.09-1.78h8.7v13h-2.17v-10.96h-4.51c-0.03,0.4-0.07,0.89-0.1,1.46c-0.04,0.57-0.09,1.18-0.15,1.85
		c-0.06,0.66-0.14,1.35-0.23,2.06c-0.09,0.71-0.21,1.41-0.34,2.1c-0.12,0.63-0.27,1.19-0.43,1.68c-0.17,0.5-0.39,0.91-0.67,1.23
		c-0.28,0.32-0.65,0.54-1.09,0.65C409.13,279.01,408.57,278.99,407.88,278.85z"/>
	<path class="st2" d="M421.81,278.85v-13h2.18v4.54h3.2c0.12,0,0.28,0,0.49,0.01c0.2,0.01,0.39,0.03,0.56,0.06
		c0.75,0.11,1.37,0.36,1.86,0.75c0.49,0.39,0.86,0.87,1.09,1.46c0.24,0.59,0.36,1.23,0.36,1.94c0,0.72-0.12,1.37-0.36,1.96
		c-0.24,0.59-0.6,1.07-1.09,1.46c-0.49,0.39-1.11,0.64-1.86,0.75c-0.17,0.02-0.35,0.04-0.56,0.05c-0.2,0.01-0.37,0.02-0.49,0.02
		H421.81z M423.99,276.81h3.11c0.13,0,0.26-0.01,0.41-0.02c0.15-0.01,0.29-0.03,0.42-0.06c0.35-0.09,0.64-0.25,0.84-0.48
		c0.21-0.23,0.35-0.49,0.44-0.78c0.09-0.29,0.13-0.58,0.13-0.85c0-0.28-0.04-0.56-0.13-0.85c-0.09-0.29-0.23-0.55-0.44-0.78
		c-0.21-0.23-0.49-0.39-0.84-0.48c-0.13-0.04-0.27-0.06-0.42-0.07c-0.15-0.01-0.29-0.02-0.41-0.02h-3.11V276.81z"/>
	<path class="st2" d="M439.02,279.12c-1.3,0-2.41-0.29-3.34-0.85c-0.93-0.57-1.64-1.36-2.14-2.38c-0.5-1.02-0.75-2.2-0.75-3.54
		c0-1.34,0.25-2.52,0.75-3.54c0.5-1.02,1.21-1.81,2.14-2.38c0.93-0.57,2.04-0.85,3.34-0.85c1.5,0,2.75,0.37,3.75,1.12
		c1,0.75,1.7,1.76,2.1,3.03l-2.19,0.61c-0.25-0.85-0.68-1.51-1.29-1.99c-0.61-0.48-1.4-0.72-2.37-0.72c-0.87,0-1.6,0.2-2.18,0.59
		c-0.58,0.39-1.02,0.94-1.31,1.65c-0.29,0.71-0.44,1.54-0.45,2.49c0,0.95,0.15,1.78,0.44,2.49c0.29,0.71,0.73,1.26,1.31,1.65
		s1.31,0.59,2.18,0.59c0.97,0,1.76-0.24,2.37-0.72c0.61-0.48,1.04-1.14,1.29-1.99l2.19,0.6c-0.4,1.27-1.1,2.28-2.1,3.03
		C441.77,278.75,440.52,279.12,439.02,279.12z"/>
	<path class="st2" d="M446.85,278.85v-13h2.18v6.03l5.19-6.03h2.67l-5.59,6.37l5.97,6.63h-2.76l-5.48-6.07v6.07H446.85z"/>
	<path class="st2" d="M466.77,278.85v-9.16l-6.03,9.16h-2.2v-13h2.2v9.16l6.03-9.16h2.2v13H466.77z"/>
	<path class="st2" d="M471.5,278.85v-13h2.2v9.16l6.03-9.16h2.2v13h-2.2v-9.16l-6.03,9.16H471.5z M476.71,264.75
		c-0.51,0-0.96-0.12-1.38-0.37c-0.41-0.25-0.74-0.58-0.99-0.99c-0.25-0.41-0.37-0.87-0.37-1.38h1.7c0,0.29,0.1,0.53,0.3,0.74
		c0.2,0.2,0.45,0.3,0.74,0.3c0.29,0,0.53-0.1,0.74-0.3c0.2-0.2,0.3-0.45,0.3-0.74h1.7c0,0.51-0.12,0.96-0.37,1.38
		c-0.25,0.41-0.58,0.74-0.99,0.99C477.67,264.62,477.21,264.75,476.71,264.75z"/>
	<path class="st2" d="M496.31,278.85v-9.16l-6.03,9.16h-2.2v-13h2.2v9.16l6.03-9.16h2.2v13H496.31z"/>
	<path class="st2" d="M501.04,278.85v-13h2.18v5.47h6.16v-5.47h2.17v13h-2.17v-5.49h-6.16v5.49H501.04z"/>
	<path class="st2" d="M519.57,279.12c-1.3,0-2.41-0.29-3.34-0.85c-0.93-0.57-1.64-1.36-2.14-2.38c-0.5-1.02-0.75-2.2-0.75-3.54
		c0-1.34,0.25-2.52,0.75-3.54c0.5-1.02,1.21-1.81,2.14-2.38c0.93-0.57,2.04-0.85,3.34-0.85c1.5,0,2.75,0.37,3.75,1.12
		c1,0.75,1.7,1.76,2.1,3.03l-2.19,0.61c-0.25-0.85-0.68-1.51-1.29-1.99c-0.61-0.48-1.4-0.72-2.37-0.72c-0.87,0-1.6,0.2-2.18,0.59
		c-0.58,0.39-1.02,0.94-1.31,1.65c-0.29,0.71-0.44,1.54-0.45,2.49c0,0.95,0.15,1.78,0.44,2.49c0.29,0.71,0.73,1.26,1.31,1.65
		c0.58,0.39,1.31,0.59,2.18,0.59c0.97,0,1.76-0.24,2.37-0.72c0.61-0.48,1.04-1.14,1.29-1.99l2.19,0.6c-0.4,1.27-1.1,2.28-2.1,3.03
		C522.32,278.75,521.07,279.12,519.57,279.12z"/>
	<path class="st2" d="M530.53,278.85v-10.96h-4.21v-2.04h10.59v2.04h-4.21v10.96H530.53z"/>
	<path class="st2" d="M546.59,278.85v-9.16l-6.03,9.16h-2.2v-13h2.2v9.16l6.03-9.16h2.2v13H546.59z"/>
	<path class="st2" d="M554.45,278.85v-10.96h-4.21v-2.04h10.59v2.04h-4.21v10.96H554.45z"/>
	<path class="st2" d="M563.99,278.85l1.72-3.5l-4.49-9.5h2.45l3.17,7.21l3.27-7.21h2.32l-6.12,13H563.99z"/>
	<path class="st2" d="M577.44,278.85v-10.96h-4.21v-2.04h10.59v2.04h-4.21v10.96H577.44z"/>
</g>
<linearGradient id="SVGID_3_" gradientUnits="userSpaceOnUse" x1="163.7977" y1="138.9066" x2="252.4373" y2="136.0086">
	<stop  offset="0" style="stop-color:#B3174B"/>
	<stop  offset="0.1882" style="stop-color:#CD2556"/>
	<stop  offset="0.3781" style="stop-color:#E0305F"/>
	<stop  offset="0.5092" style="stop-color:#E73462"/>
	<stop  offset="0.618" style="stop-color:#E84069"/>
	<stop  offset="0.8145" style="stop-color:#EB607C"/>
	<stop  offset="1" style="stop-color:#EF8492"/>
</linearGradient>
<path class="st3" d="M230.92,157.57c-0.53,0.77-1.12,1.56-1.74,2.36c0.55,0.01,1.15,0.04,1.82,0.07c1.3,0.06,2.5,0.19,3.6,0.38
	c2.7,0.41,5.13,1.1,7.32,2.04c21.02-27.24,5.52-37.39-2.08-42.14c-7.7-4.82-32.74-10.62-63.14-7.44l-13.48,8.31
	C197.56,121.03,256.64,120.38,230.92,157.57z"/>
<linearGradient id="SVGID_4_" gradientUnits="userSpaceOnUse" x1="5.2133" y1="257.1105" x2="188.976" y2="251.1026">
	<stop  offset="0" style="stop-color:#B3174B"/>
	<stop  offset="0.1882" style="stop-color:#CD2556"/>
	<stop  offset="0.3781" style="stop-color:#E0305F"/>
	<stop  offset="0.5092" style="stop-color:#E73462"/>
	<stop  offset="0.618" style="stop-color:#E84069"/>
	<stop  offset="0.8145" style="stop-color:#EB607C"/>
	<stop  offset="1" style="stop-color:#EF8492"/>
</linearGradient>
<path class="st4" d="M187.23,197.61c-67.1,50.37-180.26,113-180.26,113s113.18-55.68,180.26-100.87V197.61z"/>
</svg>
