<?xml version="1.0" encoding="utf-8"?>
<!-- Generator: Adobe Illustrator 23.0.1, SVG Export Plug-In . SVG Version: 6.00 Build 0)  -->
<svg version="1.1" id="Слой_1" xmlns="http://www.w3.org/2000/svg" xmlns:xlink="http://www.w3.org/1999/xlink" x="0px" y="0px"
	 viewBox="0 0 153.6 146.6" style="enable-background:new 0 0 153.6 146.6;" xml:space="preserve">
<style type="text/css">
	.st0{fill:#036C86;}
	.st1{fill:#006D87;}
</style>
<path class="st0" d="M108.1,146.6c-24.8,0-53.7-17.2-57.5-20c-2.8-2.1-5.1-3.8-7.1-5.3c-6.6-5-12.5-10.9-17.6-17.5L20.1,96
	C17,92-2.2,59.6,0.2,33.9C1.4,21.2,11,9.3,19.4,4.5C24,1.9,32.6-3,41,2.6c7,4.7,23.4,16.9,23.6,29.1c0,3.3-1.1,8.1-6.8,12.2
	c-5.8,4.1-9,9.9-9.4,17.1c-0.5,8.1,2.9,14.6,9.1,23l2.3,2.3c2.1,2.1,4.3,3.9,6.5,5.4c7.5,5,13,6.9,19.3,6.5c7.2-0.5,13-3.6,17.1-9.4
	c4.1-5.7,8.9-6.8,12.2-6.8c12.2,0.2,24.4,16.5,29.1,23.6c5.6,8.4,0.7,17-1.9,21.6c-4.8,8.4-16.7,18-29.4,19.2
	C111.1,146.5,109.6,146.6,108.1,146.6z M32.3,98.9c4.6,6,10,11.4,16.1,16c2,1.5,4.3,3.2,7,5.3c3.5,2.6,33.7,20.4,56.5,18.3
	c9.7-0.9,19.4-8.4,23.2-15.2c3.8-6.6,4.3-10.1,2.2-13.2c-8.1-12.1-16.9-19.9-22.6-20c-1.3,0-3.3,0.3-5.6,3.4
	c-5.5,7.7-13.5,12.2-23.1,12.8c-10.1,0.6-17.9-3.6-24.2-7.8c-2.7-1.8-5.3-3.9-7.7-6.4l-2.9-3C44,79.2,39.7,71,40.4,60.5
	c0.6-9.6,5-17.6,12.8-23.1c3.1-2.2,3.4-4.2,3.4-5.6c-0.1-5.7-7.9-14.5-20-22.6c-3.1-2.1-6.6-1.5-13.2,2.2C16.6,15.3,9.1,25,8.2,34.7
	C6,57.5,23.8,87.7,26.4,91.2L32.3,98.9z"/>
<path class="st1" d="M149.6,43.4H93l11.5-11.5c1.6-1.6,1.6-4.1,0-5.7c-1.6-1.6-4.1-1.6-5.7,0L80.8,44.2c-1.6,1.6-1.6,4.1,0,5.7
	l17.8,17.8c0.8,0.8,1.8,1.2,2.8,1.2s2-0.4,2.8-1.2c1.6-1.6,1.6-4.1,0-5.7L93.6,51.4h56c2.2,0,4-1.8,4-4S151.8,43.4,149.6,43.4z"/>
</svg>
