<?xml version="1.0" encoding="utf-8"?>
<!-- Generator: Adobe Illustrator 23.0.1, SVG Export Plug-In . SVG Version: 6.00 Build 0)  -->
<svg version="1.1" id="Слой_1" xmlns="http://www.w3.org/2000/svg" xmlns:xlink="http://www.w3.org/1999/xlink" x="0px" y="0px"
	 viewBox="0 0 153.6 148.4" style="enable-background:new 0 0 153.6 148.4;" xml:space="preserve">
<style type="text/css">
	.st0{fill:#006D87;}
	.st1{fill:#006E88;}
</style>
<path class="st0" d="M105.7,7.5c3.9,0,7,3.1,7,7v119.4c0,3.9-3.1,7-7,7H47.3c-3.9,0-7-3.1-7-7V14.5c0-3.9,3.1-7,7-7H105.7 M105.7,0
	H47.3c-8,0-14.5,6.5-14.5,14.5v119.4c0,8,6.5,14.5,14.5,14.5h58.4c8,0,14.5-6.5,14.5-14.5V14.5C120.2,6.5,113.7,0,105.7,0L105.7,0z"
	/>
<rect x="36.6" y="21.9" class="st0" width="78.6" height="7.5"/>
<rect x="36.6" y="111" class="st0" width="78.6" height="7.5"/>
<circle class="st1" cx="76.6" cy="130.1" r="6.7"/>
<rect x="67.4" y="11" class="st0" width="18.6" height="7.5"/>
</svg>
