<?xml version="1.0" encoding="utf-8"?>
<!-- Generator: Adobe Illustrator 23.0.1, SVG Export Plug-In . SVG Version: 6.00 Build 0)  -->
<svg version="1.1" id="Слой_1" xmlns="http://www.w3.org/2000/svg" xmlns:xlink="http://www.w3.org/1999/xlink" x="0px" y="0px"
	 viewBox="0 0 152.9 140.4" style="enable-background:new 0 0 152.9 140.4;" xml:space="preserve">
<style type="text/css">
	.st0{fill:#036C86;}
	.st1{fill:#006D87;}
</style>
<g>
	<line class="st0" x1="77.2" y1="13.7" x2="77.2" y2="115.6"/>
	<path class="st1" d="M77.2,119.6c-2.2,0-4-1.8-4-4V13.7c0-2.2,1.8-4,4-4s4,1.8,4,4v101.9C81.2,117.8,79.4,119.6,77.2,119.6z"/>
</g>
<path class="st1" d="M45,40c-1,0-2-0.4-2.8-1.2c-1.6-1.6-1.6-4.1,0-5.7l32-32c1.6-1.6,4.1-1.6,5.7,0l31.5,31.5
	c1.6,1.6,1.6,4.1,0,5.7c-1.6,1.6-4.1,1.6-5.7,0L77.1,9.7L47.9,38.9C47.1,39.7,46,40,45,40z"/>
<path class="st1" d="M148.9,140.4H4c-2.2,0-4-1.8-4-4v-22.8c0-2.2,1.8-4,4-4s4,1.8,4,4v18.8h136.9v-18.8c0-2.2,1.8-4,4-4s4,1.8,4,4
	v22.8C152.9,138.6,151.1,140.4,148.9,140.4z"/>
</svg>
